<?xml version="1.0" encoding="UTF-8"?>
<svg width="445px" height="190px" viewBox="0 0 445 190" version="1.1" xmlns="http://www.w3.org/2000/svg" xmlns:xlink="http://www.w3.org/1999/xlink">
    <!-- Generator: Sketch 48.2 (47327) - http://www.bohemiancoding.com/sketch -->
    <title>Group</title>
    <desc>Created with Sketch.</desc>
    <defs></defs>
    <g id="Artboard-Copy-3" stroke="none" stroke-width="1" fill="none" fill-rule="evenodd" transform="translate(-27.000000, -137.000000)">
        <g id="Group" transform="translate(27.000000, 137.000000)">
            <polygon id="DOWN" fill="#FFFFFF" points="274.960449 113.519287 297.196777 170.12085 316.737793 119.022217 336.896484 170.345459 358.627441 113.519287 364.691895 113.519287 336.054199 188.594971 332.348145 188.594971 313.930176 142.156982 296.29834 188.594971 292.030762 188.594971 262.438477 113.519287"></polygon>
            <polygon id="Path" fill="#FFFFFF" points="376.403926 113.519287 383.422969 113.519287 432.219355 167.987061 432.780879 167.987061 432.780879 113.519287 438.283809 113.519287 438.283809 189.718018 435.363887 189.718018 382.524531 129.185791 382.075312 129.185791 382.075312 187.977295 376.403926 187.977295"></polygon>
            <path d="M218.21668,189.718018 C212.451677,189.718018 207.070464,188.688568 202.072881,186.629639 C197.075297,184.570709 192.732893,181.753761 189.045537,178.178711 C185.358181,174.603661 182.457006,170.429711 180.341924,165.656738 C178.226842,160.883765 177.169316,155.783312 177.169316,150.355225 C177.169316,146.798892 177.646607,143.373633 178.601201,140.079346 C179.555796,136.785058 180.912797,133.715428 182.672246,130.870361 C184.431695,128.025295 186.556104,125.432954 189.045537,123.093262 C191.53497,120.753569 194.295766,118.750822 197.328008,117.084961 C200.36025,115.4191 203.645129,114.127609 207.182744,113.210449 C210.720359,112.29329 214.398301,111.834717 218.21668,111.834717 C222.072493,111.834717 225.759794,112.29329 229.278691,113.210449 C232.797589,114.127609 236.082468,115.4191 239.133428,117.084961 C242.184387,118.750822 244.945183,120.753569 247.415898,123.093262 C249.886614,125.432954 252.011023,128.025295 253.789189,130.870361 C255.567356,133.715428 256.933716,136.785058 257.888311,140.079346 C258.842905,143.373633 259.320195,146.798892 259.320195,150.355225 C259.320195,153.986428 258.842905,157.467838 257.888311,160.799561 C256.933716,164.131283 255.567356,167.257065 253.789189,170.177002 C252.011023,173.096938 249.886614,175.754789 247.415898,178.150635 C244.945183,180.54648 242.184387,182.605379 239.133428,184.327393 C236.082468,186.049406 232.797589,187.378332 229.278691,188.314209 C225.759794,189.250086 222.072493,189.718018 218.21668,189.718018 Z M218.21668,186.011963 C222.484279,186.011963 226.255807,185.122893 229.531377,183.344727 C232.806947,181.56656 235.567743,179.086523 237.813848,175.904541 C240.059953,172.722559 241.753865,168.96039 242.895635,164.61792 C244.037405,160.27545 244.608281,155.521266 244.608281,150.355225 C244.608281,145.226618 244.037405,140.528586 242.895635,136.260986 C241.753865,131.993387 240.059953,128.315445 237.813848,125.227051 C235.567743,122.138656 232.806947,119.742847 229.531377,118.039551 C226.255807,116.336255 222.484279,115.484619 218.21668,115.484619 C213.87421,115.484619 210.065248,116.336255 206.789678,118.039551 C203.514108,119.742847 200.762671,122.138656 198.535283,125.227051 C196.307896,128.315445 194.632701,131.993387 193.509648,136.260986 C192.386596,140.528586 191.825078,145.226618 191.825078,150.355225 C191.825078,155.521266 192.386596,160.27545 193.509648,164.61792 C194.632701,168.96039 196.307896,172.722559 198.535283,175.904541 C200.762671,179.086523 203.514108,181.56656 206.789678,183.344727 C210.065248,185.122893 213.87421,186.011963 218.21668,186.011963 Z" id="Combined-Shape" fill="#FFFFFF"></path>
            <path d="M96.3361914,172.041504 L108.858164,172.041504 L108.858164,182.530518 L122.16627,182.530518 C126.358999,182.530518 130.308341,181.837979 134.014414,180.452881 C137.720487,179.067783 140.949215,177.008884 143.700693,174.276123 C146.452172,171.543362 148.623374,168.183614 150.214365,164.196777 C151.805356,160.209941 152.60084,155.596136 152.60084,150.355225 C152.60084,145.750709 151.852149,141.529967 150.354746,137.692871 C148.857343,133.855775 146.76101,130.552179 144.065684,127.781982 C141.370358,125.011786 138.160347,122.859301 134.435557,121.324463 C130.710766,119.789624 126.639762,119.022217 122.222422,119.022217 L108.858164,119.022217 L108.858164,163.041504 L96.3361914,163.041504 L96.3361914,113.519287 L121.155527,113.519287 C128.792284,113.519287 135.362043,114.230543 140.865,115.653076 C146.367957,117.075609 150.953686,119.359115 154.622324,122.503662 C158.815054,126.09743 161.968912,130.215227 164.083994,134.857178 C166.199076,139.499128 167.256602,144.571506 167.256602,150.074463 C167.256602,155.315375 166.31138,160.238014 164.420908,164.842529 C162.530437,169.447045 159.760282,173.461897 156.110361,176.887207 C152.460441,180.312517 147.949581,183.017161 142.577646,185.001221 C137.205712,186.98528 131.057092,187.977295 124.131602,187.977295 L96.3361914,187.977295 L96.3361914,172.041504 Z" id="Combined-Shape" fill="#FFFFFF"></path>
            <path d="M418.490166,94.8442383 C420.324485,94.8442383 422.140059,94.5915553 423.936943,94.0861816 C425.733827,93.580808 427.343512,92.8321176 428.766045,91.8400879 C430.188578,90.8480582 431.330331,89.6314362 432.191338,88.1901855 C433.052345,86.7489349 433.482842,85.07374 433.482842,83.1645508 C433.482842,80.8810107 432.893248,78.8501879 431.714043,77.0720215 C430.534838,75.293855 428.990664,73.6654534 427.081475,72.1867676 C425.172285,70.7080818 422.991724,69.3136459 420.539727,68.003418 C418.087729,66.6931901 415.588974,65.3829818 413.043389,64.0727539 C410.497803,62.762526 407.999049,61.3868073 405.547051,59.9455566 C403.095053,58.5043059 400.914492,56.8946215 399.005303,55.1164551 C397.096113,53.3382886 395.551939,51.354259 394.372734,49.1643066 C393.193529,46.9743543 392.603936,44.4568827 392.603936,41.6118164 C392.603936,38.7667501 393.137377,36.1276163 394.204277,33.6943359 C395.271177,31.2610555 396.834068,29.1553637 398.892998,27.3771973 C400.951928,25.5990308 403.488116,24.2045949 406.501641,23.1938477 C409.515165,22.1831004 412.968499,21.6777344 416.861748,21.6777344 C420.380646,21.6777344 423.525146,22.0520796 426.295342,22.8007812 C429.065538,23.5494829 431.498782,24.6538013 433.595146,26.1137695 C435.691511,27.5737378 437.469651,29.3705948 438.929619,31.5043945 C440.389587,33.6381943 441.568775,36.1088727 442.467217,38.9165039 L436.06585,41.8364258 C435.317148,39.5528857 434.362568,37.4659111 433.20208,35.5754395 C432.041592,33.6849678 430.656515,32.0659247 429.046807,30.7182617 C427.437098,29.3705987 425.574731,28.3317908 423.459648,27.6018066 C421.344566,26.8718225 418.958115,26.5068359 416.300225,26.5068359 C413.941814,26.5068359 411.882916,26.834388 410.123467,27.489502 C408.364018,28.1446159 406.894713,29.0056099 405.715508,30.0725098 C404.536303,31.1394096 403.656591,32.3373143 403.076348,33.6662598 C402.496104,34.9952052 402.205986,36.3522066 402.205986,37.7373047 C402.205986,39.683929 402.804939,41.4714274 404.002861,43.0998535 C405.200784,44.7282796 406.791751,46.263095 408.775811,47.7043457 C410.75987,49.1455964 413.0153,50.5400323 415.542168,51.8876953 C418.069036,53.2353583 420.642659,54.6017183 423.263115,55.9868164 C425.883571,57.3719145 428.457194,58.8131436 430.984062,60.3105469 C433.510931,61.8079502 435.766361,63.4457105 437.75042,65.223877 C439.734479,67.0020434 441.325446,68.9486385 442.523369,71.0637207 C443.721292,73.1788029 444.320244,75.5465364 444.320244,78.1669922 C444.320244,81.1243637 443.758726,83.903877 442.635674,86.5056152 C441.512621,89.1073535 439.828068,91.3721421 437.581963,93.3000488 C435.335858,95.2279556 432.546986,96.7534124 429.215264,97.8764648 C425.883541,98.9995173 422.009068,99.5610352 417.591729,99.5610352 C413.997961,99.5610352 410.797309,99.1679727 407.989678,98.3818359 C405.182047,97.5956992 402.702009,96.4539463 400.549492,94.956543 C398.396975,93.4591396 396.553325,91.6342067 395.018486,89.4816895 C393.483648,87.3291722 392.229591,84.8678524 391.256279,82.0976562 L397.938408,79.3461914 C398.724545,81.7794718 399.78207,83.950674 401.111016,85.8598633 C402.439961,87.7690525 403.984135,89.3880956 405.743584,90.717041 C407.503033,92.0459865 409.458987,93.0660772 411.611504,93.7773438 C413.764021,94.4886103 416.056886,94.8442383 418.490166,94.8442383 Z" id="DOORS" fill="#FFFFFF"></path>
            <path d="M323.865049,23.3623047 L349.695127,23.3623047 C354.149902,23.3623047 358.061809,23.8395948 361.430967,24.7941895 C364.800124,25.7487841 367.607713,27.0870682 369.853818,28.809082 C372.099923,30.5310958 373.793835,32.5806359 374.935605,34.9577637 C376.077375,37.3348914 376.648252,39.9272321 376.648252,42.7348633 C376.648252,45.0558384 376.208396,47.2270407 375.328672,49.2485352 C374.448947,51.2700296 373.213608,53.0949626 371.622617,54.7233887 C370.031626,56.3518148 368.113107,57.7556093 365.867002,58.9348145 C363.620897,60.1140196 361.150219,61.040524 358.454893,61.7143555 L385.576475,97.8203125 L371.033018,97.8203125 L345.146787,62.8374023 L336.387021,62.8374023 L336.387021,97.8203125 L323.865049,97.8203125 L323.865049,23.3623047 Z M336.387021,59.0751953 L343.630674,59.0751953 C346.438305,59.0751953 349.030646,58.7008501 351.407773,57.9521484 C353.784901,57.2034468 355.8438,56.1459215 357.584531,54.779541 C359.325263,53.4131605 360.682264,51.7566829 361.655576,49.8100586 C362.628888,47.8634343 363.115537,45.6735148 363.115537,43.2402344 C363.115537,40.9941294 362.731833,38.9352307 361.964414,37.0634766 C361.196995,35.1917224 360.111394,33.5913966 358.707578,32.2624512 C357.303763,30.9335057 355.637926,29.8946978 353.71002,29.1459961 C351.782113,28.3972944 349.676421,28.0229492 347.392881,28.0229492 L336.387021,28.0229492 L336.387021,59.0751953 Z" id="Combined-Shape" fill="#FFFFFF"></path>
            <path d="M268.53583,99.5610352 C262.770827,99.5610352 257.389615,98.5315858 252.392031,96.4726562 C247.394448,94.4137267 243.052043,91.5967789 239.364688,88.0217285 C235.677332,84.4466781 232.776156,80.2727289 230.661074,75.4997559 C228.545992,70.7267828 227.488467,65.6263292 227.488467,60.1982422 C227.488467,56.6419093 227.965757,53.2166506 228.920352,49.9223633 C229.874946,46.628076 231.231948,43.5584452 232.991396,40.7133789 C234.750845,37.8683126 236.875254,35.275972 239.364688,32.9362793 C241.854121,30.5965866 244.614916,28.5938397 247.647158,26.9279785 C250.6794,25.2621173 253.964279,23.9706263 257.501895,23.0534668 C261.03951,22.1363073 264.717452,21.6777344 268.53583,21.6777344 C272.391644,21.6777344 276.078944,22.1363073 279.597842,23.0534668 C283.11674,23.9706263 286.401619,25.2621173 289.452578,26.9279785 C292.503537,28.5938397 295.264333,30.5965866 297.735049,32.9362793 C300.205764,35.275972 302.330173,37.8683126 304.10834,40.7133789 C305.886506,43.5584452 307.252866,46.628076 308.207461,49.9223633 C309.162056,53.2166506 309.639346,56.6419093 309.639346,60.1982422 C309.639346,63.8294452 309.162056,67.3108557 308.207461,70.6425781 C307.252866,73.9743005 305.886506,77.1000831 304.10834,80.0200195 C302.330173,82.939956 300.205764,85.597807 297.735049,87.9936523 C295.264333,90.3894977 292.503537,92.4483963 289.452578,94.1704102 C286.401619,95.892424 283.11674,97.2213495 279.597842,98.1572266 C276.078944,99.0931036 272.391644,99.5610352 268.53583,99.5610352 Z M268.53583,95.8549805 C272.80343,95.8549805 276.574958,94.9659106 279.850527,93.1877441 C283.126097,91.4095777 285.886893,88.9295406 288.132998,85.7475586 C290.379103,82.5655765 292.073015,78.8034071 293.214785,74.4609375 C294.356555,70.1184679 294.927432,65.3642836 294.927432,60.1982422 C294.927432,55.0696358 294.356555,50.3716034 293.214785,46.1040039 C292.073015,41.8364044 290.379103,38.1584627 288.132998,35.0700684 C285.886893,31.981674 283.126097,29.5858646 279.850527,27.8825684 C276.574958,26.1792721 272.80343,25.3276367 268.53583,25.3276367 C264.19336,25.3276367 260.384398,26.1792721 257.108828,27.8825684 C253.833258,29.5858646 251.081821,31.981674 248.854434,35.0700684 C246.627046,38.1584627 244.951851,41.8364044 243.828799,46.1040039 C242.705746,50.3716034 242.144229,55.0696358 242.144229,60.1982422 C242.144229,65.3642836 242.705746,70.1184679 243.828799,74.4609375 C244.951851,78.8034071 246.627046,82.5655765 248.854434,85.7475586 C251.081821,88.9295406 253.833258,91.4095777 257.108828,93.1877441 C260.384398,94.9659106 264.19336,95.8549805 268.53583,95.8549805 Z" id="Combined-Shape" fill="#FFFFFF"></path>
            <path d="M174.472236,99.5610352 C168.707234,99.5610352 163.326021,98.5315858 158.328438,96.4726562 C153.330854,94.4137267 148.988449,91.5967789 145.301094,88.0217285 C141.613738,84.4466781 138.712563,80.2727289 136.59748,75.4997559 C134.482398,70.7267828 133.424873,65.6263292 133.424873,60.1982422 C133.424873,56.6419093 133.902163,53.2166506 134.856758,49.9223633 C135.811352,46.628076 137.168354,43.5584452 138.927803,40.7133789 C140.687252,37.8683126 142.811661,35.275972 145.301094,32.9362793 C147.790527,30.5965866 150.551323,28.5938397 153.583564,26.9279785 C156.615806,25.2621173 159.900685,23.9706263 163.438301,23.0534668 C166.975916,22.1363073 170.653858,21.6777344 174.472236,21.6777344 C178.32805,21.6777344 182.01535,22.1363073 185.534248,23.0534668 C189.053146,23.9706263 192.338025,25.2621173 195.388984,26.9279785 C198.439944,28.5938397 201.20074,30.5965866 203.671455,32.9362793 C206.142171,35.275972 208.26658,37.8683126 210.044746,40.7133789 C211.822913,43.5584452 213.189273,46.628076 214.143867,49.9223633 C215.098462,53.2166506 215.575752,56.6419093 215.575752,60.1982422 C215.575752,63.8294452 215.098462,67.3108557 214.143867,70.6425781 C213.189273,73.9743005 211.822913,77.1000831 210.044746,80.0200195 C208.26658,82.939956 206.142171,85.597807 203.671455,87.9936523 C201.20074,90.3894977 198.439944,92.4483963 195.388984,94.1704102 C192.338025,95.892424 189.053146,97.2213495 185.534248,98.1572266 C182.01535,99.0931036 178.32805,99.5610352 174.472236,99.5610352 Z M174.472236,95.8549805 C178.739836,95.8549805 182.511364,94.9659106 185.786934,93.1877441 C189.062503,91.4095777 191.823299,88.9295406 194.069404,85.7475586 C196.315509,82.5655765 198.009421,78.8034071 199.151191,74.4609375 C200.292961,70.1184679 200.863838,65.3642836 200.863838,60.1982422 C200.863838,55.0696358 200.292961,50.3716034 199.151191,46.1040039 C198.009421,41.8364044 196.315509,38.1584627 194.069404,35.0700684 C191.823299,31.981674 189.062503,29.5858646 185.786934,27.8825684 C182.511364,26.1792721 178.739836,25.3276367 174.472236,25.3276367 C170.129767,25.3276367 166.320804,26.1792721 163.045234,27.8825684 C159.769665,29.5858646 157.018227,31.981674 154.79084,35.0700684 C152.563452,38.1584627 150.888258,41.8364044 149.765205,46.1040039 C148.642153,50.3716034 148.080635,55.0696358 148.080635,60.1982422 C148.080635,65.3642836 148.642153,70.1184679 149.765205,74.4609375 C150.888258,78.8034071 152.563452,82.5655765 154.79084,85.7475586 C157.018227,88.9295406 159.769665,91.4095777 163.045234,93.1877441 C166.320804,94.9659106 170.129767,95.8549805 174.472236,95.8549805 Z" id="Combined-Shape" fill="#FFFFFF"></path>
            <path d="M81.7694824,23.679581 C85.9558997,24.0165961 89.7395759,24.6220987 93.1205567,25.4960938 C98.6235139,26.9186269 103.209243,29.2021327 106.877881,32.3466797 C111.07061,35.9404477 114.224469,40.058245 116.339551,44.7001953 C118.454633,49.3421456 119.512158,54.4145233 119.512158,59.9174805 C119.512158,65.1583921 118.566937,70.0810317 116.676465,74.6855469 C114.785993,79.2900621 112.015839,83.3049145 108.365918,86.7302246 C104.715997,90.1555347 100.205138,92.8601789 94.8332031,94.8442383 C89.4612687,96.8282977 83.3126486,97.8203125 76.3871582,97.8203125 L48.5917481,97.8203125 L48.5917481,29.6777344 L61.1137207,29.6777344 L61.1137207,92.3735352 L74.4218262,92.3735352 C78.6145555,92.3735352 82.5638975,91.6809965 86.2699707,90.2958984 C89.9760439,88.9108004 93.2047714,86.8519017 95.95625,84.1191406 C98.7077286,81.3863796 100.878931,78.0266313 102.469922,74.0397949 C104.060913,70.0529586 104.856396,65.4391538 104.856396,60.1982422 C104.856396,55.593727 104.107706,51.3729847 102.610303,47.5358887 C101.112899,43.6987927 99.0165662,40.3951961 96.3212402,37.625 C93.6259143,34.8548039 90.4159041,32.7023189 86.6911133,31.1674805 C85.1127397,30.5170954 83.4721992,30.0045121 81.7694824,29.629729 L81.7694824,23.679581 Z" id="Combined-Shape" fill="#FFFFFF"></path>
            <path d="M0.76953125,188 L0.76953125,183.085885 C14.4355194,170.168718 26.2526778,158.772765 36.221361,148.897685 C46.1900441,139.022604 54.6609577,130.294287 61.6343557,122.712472 C68.6077538,115.130657 74.2706297,108.508368 78.6231534,102.845407 C82.975677,97.1824462 86.3687225,92.0811778 88.8023916,87.5414488 C91.2360607,83.0017199 92.8740827,78.8598644 93.7165066,75.115758 C94.5589305,71.3716517 94.9801362,67.6276015 94.9801362,63.8834951 C94.9801362,58.4545409 94.1377249,53.1894704 92.452877,48.0881255 C90.7680292,42.9867806 88.2407953,38.47052 84.8710996,34.5392084 C81.5014039,30.6078967 77.3127477,27.4488544 72.3050055,25.0619866 C67.2972632,22.6751188 61.5173858,21.4817028 54.9651997,21.4817028 C49.8170534,21.4817028 44.785986,22.3475144 39.8718464,24.0791636 C34.9577068,25.8108127 30.4882469,28.1976447 26.4633326,31.2397311 C22.4384183,34.2818176 19.0453728,37.8152649 16.2840944,41.8401792 C13.5228159,45.8650936 11.7677924,50.1707513 11.0189711,54.7572816 L5.54324298,54.7572816 C6.10485893,47.1754662 8.09388559,40.0617708 11.5103826,33.4159821 C14.9268797,26.7701933 19.3027383,20.9669155 24.6380899,16.0059746 C29.9734414,11.0450337 36.0809233,7.13718131 42.9607187,4.28230022 C49.8405141,1.42741913 57.0244104,0 64.5126231,0 C74.0600943,0 82.4140063,1.35721819 89.5746097,4.07169529 C96.7352131,6.7861724 102.749094,10.4600216 107.616432,15.0933532 C112.48377,19.7266849 116.134219,25.108757 118.567888,31.2397311 C121.001557,37.3707053 122.218374,43.8057915 122.218374,50.545183 C122.218374,57.658985 120.650553,64.8428813 117.514864,72.0970874 C114.379175,79.3512934 109.301306,87.4712023 102.281107,96.4570575 C95.2609077,105.442913 86.1347853,115.622049 74.9024663,126.994772 C63.6701472,138.367495 49.9107628,151.729074 33.6239002,167.07991 L156.72806,167.07991 L139.129335,182 L105.3125,188 L0.76953125,188 Z" id="2" fill="#FFFFFF"></path>
            <path d="M54.9543808,23.4678349 L72.411084,23.3623047 C80.2063337,23.3623047 86.9409772,24.0914114 92.6211094,25.5597449 C98.4081069,27.0557034 103.268692,29.4760762 107.179464,32.8281665 C111.588713,36.607523 114.921259,40.958622 117.159529,45.870931 C119.395656,50.7785361 120.512158,56.1337968 120.512158,61.9174805 C120.512158,69.3083693 119.590651,75.1799247 117.197789,77.9838436 L115.906833,79.4965649 L49.533098,23.5006193 L54.9543808,23.4678349 Z" id="Combined-Shape" stroke="#A94842" stroke-width="4"></path>
        </g>
    </g>
</svg>
